<?xml version="1.0" encoding="UTF-8" standalone="no"?>
<!DOCTYPE svg PUBLIC "-//W3C//DTD SVG 1.1//EN" "http://www.w3.org/Graphics/SVG/1.1/DTD/svg11.dtd">
<svg width="100%" height="100%" viewBox="0 0 32 32" version="1.1" xmlns="http://www.w3.org/2000/svg" xmlns:xlink="http://www.w3.org/1999/xlink" xml:space="preserve" xmlns:serif="http://www.serif.com/" style="fill-rule:evenodd;clip-rule:evenodd;stroke-linecap:round;stroke-linejoin:round;stroke-miterlimit:10;">
    <path d="M26,30L6,30C3.8,30 2,28.2 2,26L2,6C2,3.8 3.8,2 6,2L26,2C28.2,2 30,3.8 30,6L30,26C30,28.2 28.2,30 26,30Z" style="fill:rgb(103,144,89);fill-rule:nonzero;stroke:black;stroke-width:2px;"/>
    <path d="M27,6.5L27,13.5C27,14.3 26.3,15 25.5,15C24.7,15 24,14.3 24,13.5L24,6.5C24,5.7 24.7,5 25.5,5C26.3,5 27,5.7 27,6.5Z" style="fill:rgb(255,237,15);fill-rule:nonzero;stroke:black;stroke-width:2px;"/>
    <path d="M8,18.5L8,25.5C8,26.3 7.3,27 6.5,27C5.7,27 5,26.3 5,25.5L5,18.5C5,17.7 5.7,17 6.5,17C7.3,17 8,17.7 8,18.5Z" style="fill:rgb(255,237,15);fill-rule:nonzero;stroke:black;stroke-width:2px;"/>
    <circle cx="15" cy="18" r="2" style="fill:rgb(15,137,255);stroke:black;stroke-width:2px;"/>
    <path d="M16,16L16,2" style="fill:none;fill-rule:nonzero;stroke:black;stroke-width:2px;"/>
    <path d="M16,30L16,20" style="fill:none;fill-rule:nonzero;stroke:black;stroke-width:2px;"/>
</svg>
